<svg xmlns="http://www.w3.org/2000/svg" viewBox="0 0 500 500"><g id="freepik--Shadow--inject-2"><ellipse cx="307.2" cy="431.7" rx="122.17" ry="10.42" style="fill:#ebebeb"></ellipse></g><g id="freepik--Floor--inject-2"><polygon points="45.75 349.59 96.82 349.35 147.88 349.26 250 349.1 352.12 349.26 403.19 349.35 454.25 349.59 403.19 349.84 352.12 349.93 250 350.09 147.88 349.93 96.82 349.84 45.75 349.59" style="fill:#263238"></polygon></g><g id="freepik--Cirlcles--inject-2"><path d="M79.56,454.82c.08-.76.8-1.22,1.41-1.56a12.82,12.82,0,0,1,2-.87,42.23,42.23,0,0,1,4.23-1.19c2.86-.66,5.75-1.15,8.65-1.61,5.79-.88,11.62-1.55,17.45-2.13,11.67-1.16,23.37-2,35.07-2.67,23.41-1.31,46.85-2.05,70.29-2.5,46.88-.83,93.79-.6,140.66,1.14,11.71.48,23.43,1.07,35.13,1.84s23.39,1.72,35,3.17a128.88,128.88,0,0,1,17.35,3.14,14.44,14.44,0,0,1,4.15,1.76,2.5,2.5,0,0,1,.85,1,1.44,1.44,0,0,1-.24,1.41,5.35,5.35,0,0,1-1.95,1.33,43.43,43.43,0,0,1-8.56,2.32c-5.78,1.09-11.61,1.8-17.44,2.44S412,463,406.15,463.41c-46.78,3.43-93.7,4.12-140.58,4q35.16-.12,70.31-1.18c23.43-.7,46.86-1.68,70.22-3.5,5.84-.47,11.68-1,17.5-1.63s11.63-1.38,17.37-2.47a43.56,43.56,0,0,0,8.38-2.29,4.91,4.91,0,0,0,1.66-1.1.67.67,0,0,0,.13-.65,1.75,1.75,0,0,0-.59-.64,14,14,0,0,0-3.91-1.63,127.72,127.72,0,0,0-17.24-3.07c-11.62-1.42-23.3-2.32-35-3.08s-23.4-1.3-35.11-1.76c-46.84-1.86-93.74-2.2-140.61-1.48-23.43.39-46.87,1.08-70.27,2.32-11.71.61-23.4,1.35-35.07,2.43-5.84.54-11.67,1.17-17.46,2-2.9.44-5.79.91-8.65,1.55A41.52,41.52,0,0,0,83,452.42a13.72,13.72,0,0,0-2,.85C80.37,453.61,79.65,454.06,79.56,454.82Z" style="fill:#263238"></path><path d="M130.36,422.21h-3v-1c2,0,4,0,6,0v1Zm-9-.06-6-.11,0-1,6,.11Zm18,0,0-1,6-.11,0,1Zm-30-.28q-3-.11-6-.24l0-1c2,.09,4,.17,6,.24Zm42,0,0-1,6-.23,0,1Zm-53.93-.53-6-.38.06-1c2,.14,3.94.26,6,.38Zm65.91,0-.06-1c2-.11,4-.24,6-.37l.07,1C167.38,421.08,165.39,421.21,163.35,421.32Zm-77.87-.83q-3.09-.25-6-.55l.1-1c1.93.19,3.91.37,6,.55Zm89.84,0-.09-1q3.08-.25,6-.55l.1,1C179.36,420.13,177.37,420.32,175.32,420.49ZM73.54,419.28c-2.09-.25-4.09-.52-6-.79l.14-1c1.86.27,3.85.54,5.93.79Zm113.71,0-.12-1c2.05-.25,4.05-.51,5.93-.79l.14,1C191.31,418.76,189.31,419,187.25,419.27ZM61.66,417.51c-2.16-.4-4.14-.82-5.89-1.26l.24-1c1.73.43,3.69.85,5.83,1.25Zm137.47,0-.18-1c2.14-.4,4.1-.82,5.83-1.25l.24,1C203.27,416.67,201.29,417.1,199.13,417.5ZM50,414.48c-3.14-1.25-4.69-2.56-4.73-4l1,0c0,1,1.49,2.09,4.1,3.13Zm160.81,0-.37-.93c2.61-1,4-2.15,4-3.13l1-.13v.12C215.48,411.87,214,413.19,210.8,414.45ZM50.25,407.27l-.37-.92a45.93,45.93,0,0,1,5.78-1.8l.25,1A44.22,44.22,0,0,0,50.25,407.27Zm160.08,0a45.41,45.41,0,0,0-5.66-1.74l.24-1a45.82,45.82,0,0,1,5.79,1.78Zm-148.6-3-.18-1c1.84-.34,3.84-.67,5.93-1l.15,1C65.55,403.61,63.56,403.93,61.73,404.27Zm137.11,0c-1.82-.34-3.8-.67-5.89-1l.14-1c2.11.31,4.1.64,5.93,1ZM73.55,402.5l-.12-1q2.86-.35,6-.66l.1,1C77.44,402.05,75.45,402.27,73.55,402.5Zm113.47,0q-2.85-.35-5.94-.65l.1-1q3.09.32,6,.66ZM85.45,401.29l-.08-1q2.91-.26,6-.46l.07,1Q88.37,401.06,85.45,401.29Zm89.67,0q-2.9-.24-6-.46l.07-1q3.06.21,6,.45Zm-77.73-.82-.06-1q2.94-.16,6-.3l0,1Zm65.79,0c-2-.11-4-.21-6-.3l0-1q3,.14,6,.3Zm-53.84-.53,0-1q3-.1,6-.18l0,1Q112.3,399.82,109.34,399.92Zm41.89,0-6-.17,0-1,6,.17Zm-29.92-.28,0-1q3,0,6-.06v1C125.28,399.58,123.28,399.6,121.31,399.63Zm17.95,0c-2,0-4-.05-6-.06v-1q3,0,6,.06Z" style="fill:#FFC727"></path><path d="M304.78,418.14c-84.1,0-150-11.2-150-25.51s65.87-25.51,150-25.51,150,11.21,150,25.51S388.87,418.14,304.78,418.14Zm0-50c-39.9,0-77.41,2.6-105.61,7.32-27.56,4.61-43.36,10.88-43.36,17.19s15.8,12.58,43.36,17.2c28.21,4.71,65.71,7.31,105.61,7.31s77.4-2.6,105.61-7.31c27.55-4.62,43.36-10.88,43.36-17.2s-15.81-12.58-43.36-17.19C382.18,370.72,344.68,368.12,304.78,368.12Z" style="fill:#c7c7c7"></path><path d="M133.8,226.75A79.8,79.8,0,1,1,213.59,147,79.88,79.88,0,0,1,133.8,226.75Zm0-158.59A78.8,78.8,0,1,0,212.59,147,78.89,78.89,0,0,0,133.8,68.16Z" style="fill:#263238"></path><path d="M183.31,127.55l-.05-1a41.42,41.42,0,0,0,5.88-.72l.19,1A45,45,0,0,1,183.31,127.55Zm-6.06-.09a44.66,44.66,0,0,1-6-.92l.22-1a43.93,43.93,0,0,0,5.85.9Zm17.94-2.2-.33-1a41.5,41.5,0,0,0,5.46-2.3l.45.9A44.17,44.17,0,0,1,195.19,125.26Zm-29.74-.47a44.32,44.32,0,0,1-5.52-2.52l.48-.88a44.43,44.43,0,0,0,5.39,2.47Zm40.53-5-.57-.83a42.17,42.17,0,0,0,4.63-3.7l.67.74A44.35,44.35,0,0,1,206,119.81ZM154.82,119a44.28,44.28,0,0,1-4.61-3.93l.7-.72a41.46,41.46,0,0,0,4.51,3.85Zm60.07-7.38-.77-.64a45.31,45.31,0,0,0,3.45-4.81l.85.52A46.09,46.09,0,0,1,214.89,111.62Zm-68.72-1.08a44.55,44.55,0,0,1-3.37-5l.87-.5a42.66,42.66,0,0,0,3.3,4.92Zm75.07-9.22-.92-.4a42.67,42.67,0,0,0,2-5.58l1,.27A44.65,44.65,0,0,1,221.24,101.32Zm-81.09-1.26a44.63,44.63,0,0,1-1.87-5.77l1-.24a42.52,42.52,0,0,0,1.83,5.63Zm84.38-10.38-1-.14a43,43,0,0,0,.4-5.91h1A45.21,45.21,0,0,1,224.53,89.68Zm-87.3-1.36a43.21,43.21,0,0,1-.25-4.69c0-.46,0-.91,0-1.37l1,0c0,.45,0,.89,0,1.34a44,44,0,0,0,.24,4.59Zm86.59-7.94a43,43,0,0,0-.85-5.87l1-.21a43.37,43.37,0,0,1,.87,6Zm-85.23-4-1-.17A44,44,0,0,1,139,70.34l.95.3A43.53,43.53,0,0,0,138.59,76.4Zm82.73-7.58a42,42,0,0,0-2.42-5.4l.88-.47a43.43,43.43,0,0,1,2.48,5.53Zm-79.16-3.69-.91-.43a44.23,44.23,0,0,1,3-5.28l.84.55A43,43,0,0,0,142.16,65.13Zm73.6-6.73a43.62,43.62,0,0,0-3.8-4.55l.72-.69a45.61,45.61,0,0,1,3.89,4.65Zm-67.09-3.14-.75-.66a44.55,44.55,0,0,1,4.31-4.27l.65.76A44.78,44.78,0,0,0,148.67,55.26Zm58.9-5.39a44.07,44.07,0,0,0-4.9-3.34l.51-.86a44.73,44.73,0,0,1,5,3.42Zm-49.95-2.34-.54-.83a42.79,42.79,0,0,1,5.3-2.94l.42.9A45.12,45.12,0,0,0,157.62,47.53Zm39.75-3.64A44.79,44.79,0,0,0,191.74,42l.25-1A43.23,43.23,0,0,1,197.75,43Zm-29-1.35-.29-1a43.91,43.91,0,0,1,5.9-1.37l.16,1A43.55,43.55,0,0,0,168.33,42.54Zm17.59-1.61a45,45,0,0,0-5.92-.27l0-1a45.31,45.31,0,0,1,6.05.28Z" style="fill:#FFC727"></path><path d="M378.7,201.38a44,44,0,1,1,42.85-34.1h0A44.06,44.06,0,0,1,378.7,201.38Zm0-87a43,43,0,1,0,9.66,1.1A43.06,43.06,0,0,0,378.69,114.41Z" style="fill:#FFC727"></path><path d="M363.45,143.87a5.27,5.27,0,0,1-1.18-.13,5.2,5.2,0,0,1-1.59-9.49,5.22,5.22,0,0,1,7.18,1.65,5.21,5.21,0,0,1-4.41,8Zm0-9.42a4.21,4.21,0,0,0-2.22.64,4.16,4.16,0,0,0-1.87,2.63,4.2,4.2,0,0,0,3.15,5,4.21,4.21,0,0,0,5.05-3.15h0a4.21,4.21,0,0,0-3.15-5.05A4.49,4.49,0,0,0,363.43,134.45Z" style="fill:#FFC727"></path><path d="M382.23,152.37a10.18,10.18,0,0,1-2.31-.27,10.31,10.31,0,0,1-7.73-12.36l1,.23a9.31,9.31,0,1,0,18.14,4.18l1,.23A10.34,10.34,0,0,1,382.23,152.37Z" style="fill:#FFC727"></path><path d="M400.61,152.45a5.34,5.34,0,0,1-1.17-.14,5.18,5.18,0,1,1,1.17.14Zm0-9.42a4.21,4.21,0,1,0,4.11,5.15h0a4.22,4.22,0,0,0-3.16-5.05A4.38,4.38,0,0,0,400.61,143Z" style="fill:#FFC727"></path></g></svg>